<svg width="24" height="57" viewBox="0 0 24 57" fill="none" xmlns="http://www.w3.org/2000/svg">
<path d="M7.01158 0.53066V4.24528H5.40444C2.72587 4.24528 0.583008 6.36793 0.583008 9.02123V51.4741C0.583008 54.1274 2.72587 56.25 5.40444 56.25H18.2616C20.9402 56.25 23.083 54.1274 23.083 51.4741V9.02123C23.083 6.36793 20.9402 4.24528 18.2616 4.24528H16.6544V0.53066C16.6544 0.212264 16.4402 0 16.1187 0H7.54729C7.22587 0 7.01158 0.212264 7.01158 0.53066Z" fill="black"/>
<path d="M18.1545 26.3208C18.1545 26.2146 18.0473 26.2146 17.9402 26.2146H12.9045L13.7616 17.7241C13.7616 17.6179 13.7616 17.5118 13.6545 17.5118C13.5473 17.5118 13.4402 17.5118 13.4402 17.6179L5.51161 29.717C5.51161 29.8231 5.51161 29.8231 5.51161 29.9292C5.51161 30.0354 5.61875 30.0354 5.7259 30.0354H10.7616L9.90447 38.5259C9.90447 38.6321 9.90447 38.7382 10.0116 38.7382C10.0116 38.7382 10.0116 38.7382 10.1188 38.7382C10.2259 38.7382 10.2259 38.7382 10.333 38.6321L18.1545 26.533C18.1545 26.4269 18.1545 26.3208 18.1545 26.3208Z" fill="white"/>
</svg>
