<svg xmlns="http://www.w3.org/2000/svg" width="91.444" height="62.406" viewBox="0 0 91.444 62.406">
  <g id="Grupo_374" data-name="Grupo 374" transform="translate(-657.88 -1633.218)">
    <g id="Grupo_300" data-name="Grupo 300" transform="translate(657.88 1679.696)">
      <g id="Grupo_299" data-name="Grupo 299">
        <path id="Trazado_222" data-name="Trazado 222" d="M657.88,1709.733v-15.89c1.2.187,1.8.277,2.994.452q.007,6.178.014,12.358,6.017.182,12.036.312c0,1.115.006,1.673.01,2.788Q665.406,1709.745,657.88,1709.733Z" transform="translate(-657.88 -1693.843)" fill="#fff"/>
        <path id="Trazado_223" data-name="Trazado 223" d="M681.863,1710.53q-.021-5.444-.043-10.891a2.274,2.274,0,0,1,.871-1.853,2.853,2.853,0,0,1,2.13-.607c3.614.3,5.422.419,9.046.607a3.413,3.413,0,0,1,2.129.843,2.351,2.351,0,0,1,.9,1.823l.028,10.092h-3.031c-.005-1.68-.008-2.519-.014-4.2-3.6-.064-5.409-.1-9.014-.2.007,1.759.011,2.637.018,4.4Zm2.983-7.063c3.6.159,5.409.223,9.017.323,0-1.141-.005-1.711-.009-2.852a1.7,1.7,0,0,0-.044-.568,2.814,2.814,0,0,0-.67-.064c-3.049-.133-4.572-.215-7.618-.41a.452.452,0,0,0-.687.586C684.838,1701.675,684.84,1702.275,684.846,1703.467Z" transform="translate(-663.466 -1694.617)" fill="#fff"/>
        <path id="Trazado_224" data-name="Trazado 224" d="M707.34,1710.81q-.012-6.233-.023-12.464c1.275.034,1.912.048,3.187.067,2.124,2.107,3.185,3.14,5.3,5.2,2.111-2.07,3.169-3.107,5.285-5.227,1.283-.025,1.924-.042,3.208-.082q-.013,6.251-.026,12.5h-3.01c0-3.493.007-5.238.012-8.732-2.19,2.18-3.284,3.248-5.469,5.386-2.184-2.128-3.278-3.19-5.468-5.35,0,3.478.006,5.219.01,8.7Z" transform="translate(-669.416 -1694.885)" fill="#fff"/>
        <path id="Trazado_225" data-name="Trazado 225" d="M735.434,1710.454q.02-6.339.038-12.678,6.963-.368,13.9-.973c0,1.091-.006,1.637-.011,2.728q-5.43.383-10.858.655c0,1.027-.005,1.54-.009,2.567,3.5-.12,5.248-.2,8.745-.378,0,1.073-.007,1.615-.011,2.69-3.5.123-5.245.173-8.74.254,0,1.027-.005,1.54-.009,2.567q5.428-.073,10.853-.17c0,1.092-.006,1.637-.011,2.728Q742.375,1710.453,735.434,1710.454Z" transform="translate(-675.977 -1694.534)" fill="#fff"/>
        <path id="Trazado_226" data-name="Trazado 226" d="M759.049,1709.759q.025-7.031.05-14.062,6.938-.794,13.832-1.825v3.173q-5.4.646-10.814,1.188l-.009,2.88c3.49-.25,5.235-.39,8.719-.7v3.11c-3.488.21-5.233.307-8.726.472l-.009,2.88q5.421-.143,10.841-.307v3.173Q765.99,1709.748,759.049,1709.759Z" transform="translate(-681.488 -1693.85)" fill="#fff"/>
      </g>
    </g>
    <g id="Grupo_301" data-name="Grupo 301" transform="translate(663.743 1633.218)">
      <path id="Trazado_227" data-name="Trazado 227" d="M715.764,1668.812c1.457,0,2.891-1.987,4.023-5.186a43.253,43.253,0,0,0,2.036-13.938c0-6.448-2.523-11.225-6.057-16.471-3.408,5.06-6.056,9.884-6.056,16.471a43.335,43.335,0,0,0,2.036,13.938C712.873,1666.825,714.3,1668.812,715.764,1668.812Z" transform="translate(-675.836 -1633.218)" fill="#38beef"/>
      <path id="Trazado_228" data-name="Trazado 228" d="M665.528,1683.563c10.375,0,26.427,6.259,36.3-.03-7.093,1.063-17.674-2.394-23.425-6.259C673.04,1679.063,667.415,1682.032,665.528,1683.563Z" transform="translate(-665.528 -1643.498)" fill="#38beef"/>
      <path id="Trazado_229" data-name="Trazado 229" d="M700.872,1677.708c-7.213-2.377-15.686-9.984-19.4-16.74a38.793,38.793,0,0,0-10.341.636,32.893,32.893,0,0,0,18.352,14.017A37.161,37.161,0,0,0,700.872,1677.708Z" transform="translate(-666.835 -1639.669)" fill="#38beef"/>
      <path id="Trazado_230" data-name="Trazado 230" d="M702.911,1671.955l-.01-.009h0l-.407-.383c-5.4-5.3-9.825-12.756-10.656-20.226a38.6,38.6,0,0,0-9.8-3.368c1.2,6.169,4.113,10.81,8.683,15.368,4.073,4.073,8.652,7.421,12.617,9l-.06-.04v-.01c-.03-.03-.03-.03-.109-.1h0l-.03-.02v-.01l-.23-.2Z" transform="translate(-669.382 -1636.66)" fill="#38beef"/>
      <path id="Trazado_231" data-name="Trazado 231" d="M707.757,1667.274a33.071,33.071,0,0,1-3.139-15.1,31.109,31.109,0,0,1,1.262-8.543c-2.931-3.428-6.057-6.681-7.758-7.8-2.056,10.113.11,17.863,5.762,26.639h0l.169.259h0l.189.288h0l.09.12h0l.219.318h0l.07.1h0l.288.407h0l.23.307h0l.613.795h0l.258.327h0l.07.077h0l.06.077h0l.318.367h0l.07.069h0l.109.13h0l.05.049h0l.06.07h0l.06.077h0Z" transform="translate(-672.956 -1633.826)" fill="#38beef"/>
      <path id="Trazado_232" data-name="Trazado 232" d="M724.282,1667.305a34.252,34.252,0,0,0,9.646-31.476c-1.687,1.122-4.83,4.376-7.759,7.8a31.022,31.022,0,0,1,1.261,8.544A32.88,32.88,0,0,1,724.282,1667.305Z" transform="translate(-679.238 -1633.827)" fill="#38beef"/>
      <path id="Trazado_233" data-name="Trazado 233" d="M744.695,1660.968c-3.8,6.823-12.07,14.3-19.4,16.74,4.937.06,10.65-1.629,15.12-3.487,6.5-2.683,11.6-8.057,14.623-12.617A38.763,38.763,0,0,0,744.695,1660.968Z" transform="translate(-679.474 -1639.669)" fill="#38beef"/>
      <path id="Trazado_234" data-name="Trazado 234" d="M725.762,1672.183c4.46-1.9,8.871-5.464,12.249-8.852,4.768-4.759,7.56-9.606,8.682-15.368-1.993.387-5.772.392-9.8,2.429-.824,7.461-5.692,16.9-11.514,21.94C725.513,1672.292,725.632,1672.232,725.762,1672.183Z" transform="translate(-679.495 -1636.659)" fill="#38beef"/>
      <path id="Trazado_235" data-name="Trazado 235" d="M758.509,1683.559a49.755,49.755,0,0,0-12.726-6.3c-5.782,3.885-16.739,7.382-23.4,6.279C732.193,1689.768,748.01,1683.559,758.509,1683.559Z" transform="translate(-678.794 -1643.495)" fill="#38beef"/>
    </g>
  </g>
</svg>
