<svg width="36" height="36" viewBox="0 0 36 36" fill="none" xmlns="http://www.w3.org/2000/svg">
<path d="M32.6427 2.88H3.39775C2.50786 2.88 1.65843 3.24288 1.01124 3.888C0.364045 4.4928 0 5.37984 0 6.26688V29.7734C0 30.6605 0.364045 31.5072 0.970787 32.1523C1.65843 32.7974 2.50786 33.12 3.39775 33.12H32.6427C33.5326 33.12 34.382 32.7571 35.0292 32.1523C35.6764 31.5072 36 30.6605 36 29.7734V6.26688C36 5.37984 35.636 4.53312 35.0292 3.888C34.382 3.24288 33.5326 2.88 32.6427 2.88ZM30.3775 6.26688H32.6427V8.52481H30.3775V6.26688ZM27.0202 6.26688H29.2854V8.52481H27.0202V6.26688ZM23.6225 6.26688H25.8876V8.52481H23.6225V6.26688ZM33.7753 29.7734C33.7753 30.0557 33.6539 30.3379 33.4517 30.5798C33.2494 30.7814 32.9663 30.9024 32.6427 30.9024H22.5303V27.6768C24.2292 26.6285 25.4831 25.0157 26.0899 23.1206C26.6966 21.2256 26.6157 19.2096 25.8472 17.3549C25.0787 15.5405 23.7034 14.0083 21.9236 13.1213C21.5596 12.96 21.1551 12.96 20.8315 13.1616C20.5079 13.3632 20.3056 13.7261 20.3056 14.1293V19.4515H15.7753V14.089C15.7753 13.6858 15.573 13.3229 15.2494 13.1213C14.9258 12.9197 14.4809 12.9197 14.1573 13.081C12.3775 14.0083 11.0022 15.5002 10.2337 17.3146C9.46517 19.129 9.38427 21.1853 9.99101 23.0803C10.5978 24.9754 11.8517 26.5882 13.5506 27.6365V30.8621H3.4382C3.15506 30.8621 2.87191 30.7411 2.62921 30.5395C2.38652 30.3379 2.30562 30.0557 2.30562 29.7331V11.8714H33.8157L33.7753 29.7734Z" fill="#01050F"/>
</svg>
