<svg width="61" height="49" viewBox="0 0 61 49" fill="none" xmlns="http://www.w3.org/2000/svg">
<path d="M30.4538 48.9914C32.5711 48.9914 34.2876 47.2896 34.2876 45.1904C34.2876 43.0912 32.5711 41.3894 30.4538 41.3894C28.3364 41.3894 26.6199 43.0912 26.6199 45.1904C26.6199 47.2896 28.3364 48.9914 30.4538 48.9914Z" fill="black"/>
<path d="M59.684 13.1009C52.0511 4.96904 41.7114 0.5 30.57 0.5C19.4285 0.5 9.08877 4.96904 1.45592 13.1009C0.584595 14.0338 0.631066 15.4851 1.5721 16.3605C2.51314 17.2243 3.97697 17.1783 4.85992 16.2453C11.5982 9.05798 20.7297 5.10726 30.57 5.10726C40.4102 5.10726 49.5417 9.05798 56.2916 16.2338C56.7447 16.7175 57.3721 16.9709 57.9878 16.9709C58.5571 16.9709 59.1263 16.7636 59.5678 16.349C60.5088 15.4851 60.5669 14.0223 59.684 13.1009Z" fill="black"/>
<path d="M51.1566 22.6148C45.5103 16.9709 38.2028 13.861 30.57 13.861C22.9371 13.861 15.6296 16.9709 9.98334 22.6033C9.07715 23.5017 9.08877 24.9645 9.99495 25.863C10.9011 26.7614 12.3766 26.7498 13.2828 25.8514C18.046 21.0944 24.1802 18.4683 30.57 18.4683C36.9481 18.4683 43.0939 21.0944 47.8571 25.8514C48.3102 26.3006 48.9143 26.531 49.5068 26.531C50.0994 26.531 50.6919 26.3122 51.145 25.863C52.0511 24.9761 52.0627 23.5133 51.1566 22.6148Z" fill="black"/>
<path d="M41.8624 32.1518C38.8418 29.1802 34.5084 27.3373 30.5583 27.3373H30.3957C26.4457 27.3373 22.1122 29.1802 19.0916 32.1518C18.1854 33.0503 18.1738 34.5015 19.08 35.4115C19.5331 35.8607 20.1372 36.091 20.7297 36.091C21.3222 36.091 21.9147 35.8722 22.3678 35.423C24.5171 33.3037 27.6771 31.9445 30.4073 31.9445H30.5699C33.3001 31.9445 36.4601 33.3152 38.6094 35.423C39.5156 36.3214 40.991 36.3099 41.8972 35.4115C42.7802 34.5015 42.7686 33.0503 41.8624 32.1518Z" fill="black"/>
</svg>
